<svg width="53.000000" height="35.000000" viewBox="0 0 53 35" fill="none" xmlns="http://www.w3.org/2000/svg" xmlns:xlink="http://www.w3.org/1999/xlink">
	<desc>
			Created with Pixso.
	</desc>
	<defs/>
	<path id="Vector" d="M51.32 15.82L3.69 15.82C3.04 15.82 2.4 15.82 1.75 15.82L1.67 15.82C0.79 15.82 -0.04 16.59 0 17.5C0.04 18.4 0.73 19.17 1.67 19.17L49.3 19.17C49.95 19.17 50.59 19.17 51.24 19.17L51.32 19.17C52.2 19.17 53.03 18.4 52.99 17.5C52.95 16.59 52.26 15.82 51.32 15.82ZM51.32 0L3.69 0C3.04 0 2.4 -0.01 1.75 0L1.67 0C0.79 0 -0.04 0.77 0 1.67C0.04 2.58 0.73 3.34 1.67 3.34L49.3 3.34C49.95 3.34 50.59 3.35 51.24 3.34L51.32 3.34C52.2 3.34 53.03 2.57 52.99 1.67C52.95 0.76 52.26 0 51.32 0ZM51.32 31.65L3.69 31.65C3.04 31.65 2.4 31.64 1.75 31.65L1.67 31.65C0.79 31.65 -0.04 32.42 0 33.32C0.04 34.23 0.73 34.99 1.67 34.99L49.3 34.99C49.95 34.99 50.59 35 51.24 34.99L51.32 34.99C52.2 34.99 53.03 34.22 52.99 33.32C52.95 32.41 52.26 31.65 51.32 31.65Z" fill="#FFFFFF" fill-opacity="1.000000" fill-rule="nonzero"/>
</svg>
