<svg width="40.000000" height="50.000000" viewBox="0 0 40 50" fill="none" xmlns="http://www.w3.org/2000/svg" xmlns:xlink="http://www.w3.org/1999/xlink">
	<desc>
			Created with Pixso.
	</desc>
	<defs/>
	<path id="Vector" d="M27.5 15L38.5 15L25 1.5L25 12.5C25 14 26 15 27.5 15ZM27.5 20C23.25 20 20 16.75 20 12.5L20 0L7.5 0C3.25 0 0 3.25 0 7.5L0 42.5C0 46.75 3.25 50 7.5 50L32.5 50C36.75 50 40 46.75 40 42.5L40 20L27.5 20ZM12.5 15L15 15C16.5 15 17.5 16 17.5 17.5C17.5 19 16.5 20 15 20L12.5 20C11 20 10 19 10 17.5C10 16 11 15 12.5 15ZM27.5 40L12.5 40C11 40 10 39 10 37.5C10 36 11 35 12.5 35L27.5 35C29 35 30 36 30 37.5C30 39 29 40 27.5 40ZM27.5 30L12.5 30C11 30 10 29 10 27.5C10 26 11 25 12.5 25L27.5 25C29 25 30 26 30 27.5C30 29 29 30 27.5 30Z" fill="#FFFFFF" fill-opacity="1.000000" fill-rule="nonzero"/>
</svg>
