<svg width="50.009033" height="57.704224" viewBox="0 0 50.009 57.7042" fill="none" xmlns="http://www.w3.org/2000/svg" xmlns:xlink="http://www.w3.org/1999/xlink">
	<desc>
			Created with Pixso.
	</desc>
	<defs/>
	<path id="Vector" d="M9.42 39.66L0 39.66L12.04 51.78L12.04 42.32C12.04 41.62 11.76 40.95 11.27 40.45C10.79 39.95 10.12 39.67 9.42 39.66Z" fill="#FFFFFF" fill-opacity="1.000000" fill-rule="nonzero"/>
	<path id="Vector" d="M36.44 0L2.61 0C1.91 0.01 1.24 0.29 0.75 0.79C0.27 1.29 -0.01 1.96 0 2.65L0 37.17L9.42 37.17C10.79 37.18 12.1 37.72 13.06 38.69C14.03 39.65 14.57 40.96 14.57 42.32L14.57 51.78L26.12 51.78C25.45 50.15 25.11 48.4 25.11 46.63C25.13 42.96 26.6 39.44 29.21 36.85C31.81 34.26 35.33 32.8 39.01 32.8L39.14 32.8L39.14 2.65C39.14 2.3 39.07 1.95 38.93 1.63C38.8 1.3 38.6 1.01 38.35 0.76C38.1 0.51 37.8 0.32 37.47 0.19C37.14 0.06 36.8 -0.01 36.44 0ZM33.23 29.22L5.82 29.22C5.65 29.23 5.47 29.21 5.31 29.16C5.15 29.1 5 29.01 4.87 28.89C4.74 28.78 4.64 28.63 4.57 28.48C4.5 28.32 4.46 28.15 4.46 27.97C4.46 27.8 4.5 27.63 4.57 27.47C4.64 27.31 4.74 27.17 4.87 27.05C5 26.93 5.15 26.84 5.31 26.79C5.47 26.73 5.65 26.71 5.82 26.73L33.24 26.73C33.41 26.71 33.58 26.73 33.75 26.79C33.91 26.84 34.06 26.93 34.19 27.05C34.32 27.17 34.42 27.31 34.49 27.47C34.56 27.63 34.6 27.8 34.6 27.97C34.6 28.15 34.56 28.32 34.49 28.48C34.42 28.63 34.32 28.78 34.19 28.89C34.06 29.01 33.91 29.1 33.75 29.16C33.58 29.21 33.41 29.23 33.24 29.22L33.23 29.22ZM33.23 21.74L5.82 21.74C5.65 21.76 5.47 21.74 5.31 21.68C5.15 21.63 5 21.54 4.87 21.42C4.74 21.3 4.64 21.16 4.57 21C4.5 20.84 4.46 20.67 4.46 20.5C4.46 20.32 4.5 20.15 4.57 19.99C4.64 19.84 4.74 19.69 4.87 19.58C5 19.46 5.15 19.37 5.31 19.31C5.47 19.26 5.65 19.24 5.82 19.25L33.24 19.25C33.41 19.24 33.58 19.26 33.75 19.31C33.91 19.37 34.06 19.46 34.19 19.58C34.32 19.69 34.42 19.84 34.49 19.99C34.56 20.15 34.6 20.32 34.6 20.5C34.6 20.67 34.56 20.84 34.49 21C34.42 21.16 34.32 21.3 34.19 21.42C34.06 21.54 33.91 21.63 33.75 21.68C33.58 21.74 33.41 21.76 33.24 21.74L33.23 21.74ZM33.23 14.26L5.82 14.26C5.65 14.27 5.47 14.25 5.31 14.2C5.15 14.14 5 14.05 4.87 13.94C4.74 13.82 4.64 13.68 4.57 13.52C4.5 13.36 4.46 13.19 4.46 13.01C4.46 12.84 4.5 12.67 4.57 12.51C4.64 12.35 4.74 12.21 4.87 12.09C5 11.98 5.15 11.89 5.31 11.83C5.47 11.77 5.65 11.75 5.82 11.77L33.24 11.77C33.41 11.75 33.58 11.77 33.75 11.83C33.91 11.89 34.06 11.98 34.19 12.09C34.32 12.21 34.42 12.35 34.49 12.51C34.56 12.67 34.6 12.84 34.6 13.01C34.6 13.19 34.56 13.36 34.49 13.52C34.42 13.68 34.32 13.82 34.19 13.94C34.06 14.05 33.91 14.14 33.75 14.2C33.58 14.25 33.41 14.27 33.24 14.26L33.23 14.26ZM33.23 6.78L5.82 6.78C5.65 6.8 5.47 6.78 5.31 6.72C5.15 6.67 5 6.58 4.87 6.46C4.74 6.34 4.64 6.2 4.57 6.04C4.5 5.88 4.46 5.71 4.46 5.54C4.46 5.37 4.5 5.19 4.57 5.04C4.64 4.88 4.74 4.73 4.87 4.62C5 4.5 5.15 4.41 5.31 4.36C5.47 4.3 5.65 4.28 5.82 4.29L33.24 4.29C33.41 4.28 33.58 4.3 33.75 4.36C33.91 4.41 34.06 4.5 34.19 4.62C34.32 4.73 34.42 4.88 34.49 5.04C34.56 5.19 34.6 5.37 34.6 5.54C34.6 5.71 34.56 5.88 34.49 6.04C34.42 6.2 34.32 6.34 34.19 6.46C34.06 6.58 33.91 6.67 33.75 6.72C33.58 6.78 33.41 6.8 33.24 6.78L33.23 6.78Z" fill="#FFFFFF" fill-opacity="1.000000" fill-rule="nonzero"/>
	<path id="Vector" d="M39.11 35.58L38.98 35.58C36.04 35.58 33.23 36.74 31.14 38.81C29.06 40.88 27.88 43.7 27.87 46.63C27.86 48.43 28.3 50.2 29.15 51.78C30.06 53.51 31.41 54.97 33.07 56.01C34.72 57.05 36.62 57.63 38.57 57.69C40.52 57.76 42.46 57.31 44.18 56.38C45.9 55.46 47.34 54.09 48.37 52.43C49.39 50.77 49.95 48.86 50 46.91C50.05 44.96 49.58 43.03 48.64 41.31C47.7 39.6 46.32 38.17 44.65 37.16C42.97 36.16 41.06 35.61 39.11 35.58ZM35.15 52.25L31.49 48.65C31.21 48.37 31.05 47.99 31.05 47.6C31.05 47.2 31.21 46.82 31.49 46.54C31.77 46.26 32.15 46.1 32.54 46.1C32.94 46.1 33.32 46.26 33.6 46.54L36.16 49.1L44.28 40.99C44.56 40.71 44.94 40.55 45.34 40.55C45.74 40.55 46.12 40.71 46.4 40.99C46.68 41.27 46.83 41.65 46.83 42.05C46.83 42.44 46.68 42.82 46.4 43.1L37.23 52.27C36.95 52.54 36.57 52.7 36.18 52.69C35.79 52.69 35.42 52.54 35.14 52.26L35.15 52.25Z" fill="#FFFFFF" fill-opacity="1.000000" fill-rule="nonzero"/>
</svg>
