<svg width="50.000000" height="46.000000" viewBox="0 0 50 46" fill="none" xmlns="http://www.w3.org/2000/svg" xmlns:xlink="http://www.w3.org/1999/xlink">
	<desc>
			Created with Pixso.
	</desc>
	<defs/>
	<path id="Vector" d="M0 2.55C0 1.14 1.11 0 2.5 0L7.5 0C8.66 0 9.67 0.82 9.93 1.98L16.98 33.22L38.04 33.22L44.29 7.66L25 7.66C23.61 7.66 22.5 6.52 22.5 5.11C22.5 3.69 23.61 2.55 25 2.55L47.5 2.55C48.26 2.55 48.99 2.91 49.47 3.53C49.94 4.15 50.11 4.96 49.92 5.73L42.42 36.39C42.14 37.53 41.14 38.33 40 38.33L15 38.33C13.83 38.33 12.82 37.51 12.56 36.35L5.51 5.11L2.5 5.11C1.11 5.11 0 3.96 0 2.55ZM20 5.11C20 6.52 18.88 7.66 17.5 7.66C16.11 7.66 15 6.52 15 5.11C15 3.69 16.11 2.55 17.5 2.55C18.88 2.55 20 3.69 20 5.11ZM30 15.33C30 13.92 28.88 12.77 27.5 12.77C26.11 12.77 25 13.92 25 15.33L25 19.38L24.26 18.63C23.29 17.63 21.7 17.63 20.73 18.63C19.75 19.63 19.75 21.25 20.73 22.25L25.73 27.36C26.7 28.36 28.29 28.36 29.26 27.36L34.26 22.25C35.24 21.25 35.24 19.63 34.26 18.63C33.29 17.63 31.7 17.63 30.73 18.63L30 19.38L30 15.33ZM17.5 46C18.88 46 20 44.85 20 43.44C20 42.03 18.88 40.88 17.5 40.88C16.11 40.88 15 42.03 15 43.44C15 44.85 16.11 46 17.5 46ZM40 43.44C40 44.85 38.88 46 37.5 46C36.11 46 35 44.85 35 43.44C35 42.03 36.11 40.88 37.5 40.88C38.88 40.88 40 42.03 40 43.44Z" fill="#FFFFFF" fill-opacity="1.000000" fill-rule="evenodd"/>
</svg>
