<svg width="55.083099" height="55.415527" viewBox="0 0 55.0831 55.4155" fill="none" xmlns="http://www.w3.org/2000/svg" xmlns:xlink="http://www.w3.org/1999/xlink">
	<desc>
			Created with Pixso.
	</desc>
	<defs/>
	<path id="Vector" d="M27.6 12.32C19.02 12.32 12.1 19.25 12.1 27.82C12.1 36.39 19.02 43.32 27.6 43.32C36.17 43.32 43.09 36.39 43.09 27.82C43.09 19.25 36.17 12.32 27.6 12.32ZM31.59 33.34C30.77 34.04 29.71 34.39 28.42 34.51L28.42 35.92L27.13 35.92L27.13 34.51C25.36 34.28 23.72 33.57 22.31 32.4L23.72 30.64C24.78 31.58 25.95 32.16 27.13 32.4L27.13 28.64C25.6 28.29 24.54 27.82 23.84 27.23C23.25 26.65 22.9 25.71 22.9 24.65C22.9 23.48 23.25 22.65 24.07 21.83C24.89 21.13 25.83 20.78 27.13 20.66L27.13 19.72L28.42 19.72L28.42 20.78C29.83 20.89 31.23 21.36 32.53 22.3L31.23 24.06C30.41 23.48 29.47 23.12 28.42 22.89L28.42 26.53C29.94 26.88 31 27.35 31.7 27.94C32.41 28.52 32.76 29.46 32.76 30.52C32.88 31.69 32.41 32.63 31.59 33.34Z" fill="#FFFFFF" fill-opacity="1.000000" fill-rule="nonzero"/>
	<path id="Vector" d="M25.25 24.42C25.25 24.89 25.36 25.24 25.6 25.47C25.83 25.71 26.3 25.94 27.13 26.18L27.13 22.77C26.54 22.77 26.07 23.01 25.72 23.24C25.48 23.59 25.25 23.95 25.25 24.42Z" fill="#FFFFFF" fill-opacity="1.000000" fill-rule="nonzero"/>
	<path id="Vector" d="M28.42 28.88L28.42 32.4C29 32.28 29.59 32.16 29.94 31.81C30.3 31.46 30.53 31.11 30.53 30.64C30.53 30.17 30.41 29.82 30.06 29.58C29.71 29.35 29.24 29.11 28.42 28.88Z" fill="#FFFFFF" fill-opacity="1.000000" fill-rule="nonzero"/>
	<path id="Vector" d="M4.58 26.41C4.94 20.66 7.4 15.26 11.51 11.27C20.43 2.58 34.64 2.58 43.56 11.15L41.21 10.8C39.92 10.68 38.87 11.5 38.63 12.67C38.51 13.85 39.34 15.02 40.51 15.26L48.49 16.31C48.61 16.31 48.73 16.31 48.85 16.31C49.32 16.31 49.78 16.2 50.25 15.84C50.72 15.49 51.08 14.91 51.08 14.32L52.13 6.33C52.25 5.04 51.43 3.99 50.25 3.75C48.96 3.63 47.91 4.46 47.67 5.63L47.32 8.33C42.15 3.05 35.34 0.11 27.95 0C20.67 0.11 13.62 2.93 8.34 8.1C3.41 12.91 0.47 19.37 0 26.18C-0.11 27.47 0.83 28.52 2.12 28.52L2.24 28.52C3.53 28.52 4.47 27.59 4.58 26.41Z" fill="#FFFFFF" fill-opacity="1.000000" fill-rule="nonzero"/>
	<path id="Vector" d="M53.07 27.12C51.9 27 50.72 27.94 50.72 29.23C50.37 34.98 47.91 40.38 43.8 44.37C34.76 53.06 20.55 53.06 11.63 44.37L14.21 44.61C15.5 44.73 16.56 43.79 16.68 42.61C16.79 41.32 15.85 40.27 14.68 40.15L6.46 39.33C5.88 39.21 5.29 39.44 4.82 39.8C4.35 40.15 4.11 40.73 4 41.32L3.17 49.31C3.06 50.6 4 51.65 5.17 51.77C5.29 51.77 5.29 51.77 5.41 51.77C6.58 51.77 7.52 50.95 7.64 49.78L7.87 47.19C13.27 52.71 20.43 55.41 27.48 55.41C34.4 55.41 41.33 52.83 46.73 47.66C51.66 42.85 54.6 36.39 55.07 29.58C55.19 28.29 54.25 27.23 53.07 27.12Z" fill="#FFFFFF" fill-opacity="1.000000" fill-rule="nonzero"/>
</svg>
