<svg width="21.000000" height="15.000000" viewBox="0 0 21 15" fill="none" xmlns="http://www.w3.org/2000/svg" xmlns:xlink="http://www.w3.org/1999/xlink">
	<desc>
			Created with Pixso.
	</desc>
	<defs/>
	<path id="Vector" d="M6.41 7.5L0 12.2L0 2.79L6.41 7.5ZM14.58 7.5L21 12.2L21 2.79L14.58 7.5ZM13.64 8.18L10.77 10.29C10.69 10.35 10.59 10.38 10.5 10.38C10.4 10.38 10.3 10.35 10.22 10.29L7.35 8.18L0.42 13.26L0.02 13.56C0.14 14.37 0.77 15 1.53 15L19.46 15C20.22 15 20.85 14.37 20.97 13.56L20.57 13.26L13.64 8.18ZM10.5 9.11L20.57 1.73L20.97 1.43C20.85 0.62 20.22 0 19.46 0L1.53 0C0.77 0 0.14 0.62 0.02 1.43L0.42 1.73L10.5 9.11Z" fill="#FAFAFA" fill-opacity="1.000000" fill-rule="nonzero"/>
</svg>
