<svg width="16.000000" height="19.999512" viewBox="0 0 16 19.9995" fill="none" xmlns="http://www.w3.org/2000/svg" xmlns:xlink="http://www.w3.org/1999/xlink">
	<desc>
			Created with Pixso.
	</desc>
	<defs/>
	<path id="Vector" d="M8 0C5.87 0 3.84 0.84 2.34 2.34C0.84 3.84 0 5.87 0 8C0 11.25 2.36 13.95 4.86 16.81C5.65 17.72 6.47 18.66 7.2 19.6C7.3 19.73 7.42 19.82 7.55 19.89C7.69 19.96 7.84 19.99 8 19.99C8.15 19.99 8.3 19.96 8.44 19.89C8.57 19.82 8.69 19.73 8.79 19.6C9.52 18.66 10.34 17.72 11.13 16.81C13.63 13.95 16 11.25 16 8C15.99 5.87 15.15 3.84 13.65 2.34C12.15 0.84 10.12 0 8 0ZM8 11C7.4 11 6.82 10.82 6.33 10.49C5.83 10.16 5.45 9.69 5.22 9.14C5 8.6 4.94 7.99 5.05 7.41C5.17 6.83 5.45 6.29 5.87 5.87C6.29 5.45 6.83 5.17 7.41 5.05C7.99 4.94 8.59 5 9.14 5.22C9.69 5.45 10.16 5.83 10.49 6.33C10.82 6.82 11 7.4 11 8C11 8.79 10.68 9.55 10.12 10.12C9.55 10.68 8.79 11 8 11Z" fill="#FAFAFA" fill-opacity="1.000000" fill-rule="nonzero"/>
</svg>
