<svg width="24.000000" height="24.000000" viewBox="0 0 24 24" fill="none" xmlns="http://www.w3.org/2000/svg" xmlns:xlink="http://www.w3.org/1999/xlink">
	<desc>
			Created with Pixso.
	</desc>
	<defs/>
	<path id="Vector" d="M22.9 17.41C21.9 16.39 19.07 14.47 17.22 14.47C16.79 14.47 16.42 14.57 16.11 14.76C15.2 15.34 14.48 15.79 14.13 15.79C13.94 15.79 13.74 15.62 13.29 15.23L13.21 15.17C11.96 14.08 11.7 13.8 11.21 13.3L11.09 13.17C11 13.08 10.93 13 10.85 12.92C10.43 12.49 10.12 12.17 9.04 10.95L8.99 10.89C8.47 10.3 8.13 9.92 8.11 9.64C8.09 9.37 8.33 8.93 8.94 8.1C9.67 7.11 9.7 5.88 9.03 4.45C8.49 3.33 7.61 2.25 6.83 1.3L6.76 1.22C6.09 0.4 5.32 0 4.45 0C3.49 0 2.69 0.51 2.27 0.79C2.24 0.81 2.2 0.83 2.17 0.85C1.22 1.45 0.53 2.28 0.27 3.12C-0.12 4.38 -0.37 6.02 1.49 9.42C3.1 12.36 4.55 14.34 6.87 16.72C9.05 18.96 10.02 19.68 12.19 21.25C14.6 22.99 16.92 24 18.54 24C20.05 24 21.24 24 22.93 21.96C24.7 19.82 23.96 18.51 22.9 17.41Z" fill="#FAFAFA" fill-opacity="1.000000" fill-rule="nonzero"/>
</svg>
